<svg width="24" height="25" viewBox="0 0 24 25" fill="none" xmlns="http://www.w3.org/2000/svg">
<path d="M17 10.4879V8.48792C17 5.72649 14.7614 3.48792 12 3.48792C9.23858 3.48792 7 5.72649 7 8.48792V10.4879M12 14.9879V16.9879M8.8 21.4879H15.2C16.8802 21.4879 17.7202 21.4879 18.362 21.1609C18.9265 20.8733 19.3854 20.4144 19.673 19.8499C20 19.2082 20 18.3681 20 16.6879V15.2879C20 13.6078 20 12.7677 19.673 12.1259C19.3854 11.5615 18.9265 11.1025 18.362 10.8149C17.7202 10.4879 16.8802 10.4879 15.2 10.4879H8.8C7.11984 10.4879 6.27976 10.4879 5.63803 10.8149C5.07354 11.1025 4.6146 11.5615 4.32698 12.1259C4 12.7677 4 13.6078 4 15.2879V16.6879C4 18.3681 4 19.2082 4.32698 19.8499C4.6146 20.4144 5.07354 20.8733 5.63803 21.1609C6.27976 21.4879 7.11984 21.4879 8.8 21.4879Z" stroke="#FD853A" stroke-width="2" stroke-linecap="round" stroke-linejoin="round"/>
</svg>
