<svg width="24" height="25" viewBox="0 0 24 25" fill="none" xmlns="http://www.w3.org/2000/svg">
<path d="M9 12.4879L11 14.4879L15.5 9.98792M7.33377 4.30661C8.1376 4.24246 8.90071 3.92637 9.51447 3.40333C10.9467 2.18278 13.0533 2.18278 14.4855 3.40333C15.0993 3.92637 15.8624 4.24246 16.6662 4.30661C18.5421 4.4563 20.0316 5.94586 20.1813 7.82168C20.2455 8.62552 20.5615 9.38863 21.0846 10.0024C22.3051 11.4346 22.3051 13.5412 21.0846 14.9734C20.5615 15.5872 20.2455 16.3503 20.1813 17.1541C20.0316 19.03 18.5421 20.5195 16.6662 20.6692C15.8624 20.7334 15.0993 21.0495 14.4855 21.5725C13.0533 22.7931 10.9467 22.7931 9.51447 21.5725C8.90071 21.0495 8.1376 20.7334 7.33377 20.6692C5.45794 20.5195 3.96839 19.03 3.8187 17.1541C3.75455 16.3503 3.43846 15.5872 2.91542 14.9734C1.69486 13.5412 1.69486 11.4346 2.91542 10.0024C3.43846 9.38863 3.75455 8.62552 3.8187 7.82168C3.96839 5.94586 5.45794 4.4563 7.33377 4.30661Z" stroke="#9E77ED" stroke-width="2" stroke-linecap="round" stroke-linejoin="round"/>
</svg>
