<svg width="28" height="29" viewBox="0 0 28 29" fill="none" xmlns="http://www.w3.org/2000/svg">
<path d="M13.1637 4.51674C13.4326 3.97198 13.5671 3.6996 13.7496 3.61257C13.9084 3.53686 14.0929 3.53686 14.2517 3.61257C14.4342 3.6996 14.5687 3.97198 14.8376 4.51674L17.3887 9.68504C17.4681 9.84586 17.5078 9.92628 17.5658 9.98871C17.6172 10.044 17.6788 10.0888 17.7472 10.1206C17.8245 10.1565 17.9132 10.1695 18.0907 10.1954L23.7971 11.0295C24.3981 11.1174 24.6985 11.1613 24.8376 11.3081C24.9585 11.4357 25.0154 11.6112 24.9924 11.7856C24.9659 11.986 24.7484 12.1979 24.3134 12.6217L20.1857 16.642C20.057 16.7674 19.9927 16.83 19.9511 16.9046C19.9144 16.9706 19.8908 17.0431 19.8817 17.1181C19.8714 17.2029 19.8866 17.2914 19.917 17.4684L20.8909 23.147C20.9937 23.7459 21.045 24.0454 20.9485 24.2231C20.8645 24.3777 20.7152 24.4862 20.5422 24.5183C20.3434 24.5551 20.0745 24.4137 19.5366 24.1309L14.4351 21.448C14.2761 21.3644 14.1967 21.3226 14.1129 21.3062C14.0388 21.2917 13.9625 21.2917 13.8884 21.3062C13.8047 21.3226 13.7252 21.3644 13.5662 21.448L8.46473 24.1309C7.92689 24.4137 7.65796 24.5551 7.45912 24.5183C7.28611 24.4862 7.13683 24.3777 7.05284 24.2231C6.95632 24.0454 7.00768 23.7459 7.1104 23.147L8.08435 17.4684C8.11471 17.2914 8.1299 17.2029 8.11962 17.1181C8.11053 17.0431 8.08695 16.9706 8.05019 16.9046C8.00868 16.83 7.94434 16.7674 7.81567 16.642L3.68797 12.6217C3.25292 12.1979 3.0354 11.986 3.00893 11.7856C2.9859 11.6112 3.0428 11.4357 3.16378 11.3081C3.30283 11.1613 3.60328 11.1174 4.2042 11.0295L9.91068 10.1954C10.0881 10.1695 10.1769 10.1565 10.2542 10.1206C10.3226 10.0888 10.3842 10.044 10.4355 9.98871C10.4935 9.92628 10.5332 9.84586 10.6126 9.68504L13.1637 4.51674Z" fill="#6B46C1" stroke="#6B46C1" stroke-width="2" stroke-linecap="round" stroke-linejoin="round"/>
</svg>
