<svg width="28" height="28" viewBox="0 0 28 28" fill="none" xmlns="http://www.w3.org/2000/svg">
<path d="M13.1637 4.02886C13.4326 3.4841 13.5671 3.21172 13.7496 3.12469C13.9084 3.04897 14.0929 3.04897 14.2517 3.12469C14.4342 3.21172 14.5687 3.4841 14.8376 4.02886L17.3887 9.19715C17.4681 9.35798 17.5078 9.43839 17.5658 9.50083C17.6172 9.55611 17.6788 9.6009 17.7472 9.63272C17.8245 9.66865 17.9132 9.68162 18.0907 9.70756L23.7971 10.5416C24.3981 10.6295 24.6985 10.6734 24.8376 10.8202C24.9585 10.9479 25.0154 11.1233 24.9924 11.2977C24.9659 11.4982 24.7484 11.71 24.3134 12.1338L20.1857 16.1541C20.057 16.2795 19.9927 16.3421 19.9511 16.4167C19.9144 16.4827 19.8908 16.5552 19.8817 16.6302C19.8714 16.715 19.8866 16.8035 19.917 16.9805L20.8909 22.6591C20.9937 23.2581 21.045 23.5575 20.9485 23.7352C20.8645 23.8899 20.7152 23.9983 20.5422 24.0304C20.3434 24.0672 20.0745 23.9258 19.5366 23.643L14.4351 20.9601C14.2761 20.8765 14.1967 20.8347 14.1129 20.8183C14.0388 20.8038 13.9625 20.8038 13.8884 20.8183C13.8047 20.8347 13.7252 20.8765 13.5662 20.9601L8.46473 23.643C7.92689 23.9258 7.65796 24.0672 7.45912 24.0304C7.28611 23.9983 7.13683 23.8899 7.05284 23.7352C6.95632 23.5575 7.00768 23.2581 7.1104 22.6591L8.08435 16.9805C8.11471 16.8035 8.1299 16.715 8.11962 16.6302C8.11053 16.5552 8.08695 16.4827 8.05019 16.4167C8.00868 16.3421 7.94434 16.2795 7.81567 16.1541L3.68797 12.1338C3.25292 11.71 3.0354 11.4982 3.00893 11.2977C2.9859 11.1233 3.0428 10.9479 3.16378 10.8202C3.30283 10.6734 3.60328 10.6295 4.2042 10.5416L9.91068 9.70756C10.0881 9.68162 10.1769 9.66865 10.2542 9.63272C10.3226 9.6009 10.3842 9.55611 10.4355 9.50083C10.4935 9.43839 10.5332 9.35798 10.6126 9.19715L13.1637 4.02886Z" fill="#DADFE7" stroke="#DADFE7" stroke-width="2" stroke-linecap="round" stroke-linejoin="round"/>
</svg>
