<svg width="36" height="36" viewBox="0 0 36 36" fill="none" xmlns="http://www.w3.org/2000/svg">
<rect x="2" y="2" width="32" height="32" rx="16" fill="#F4EBFF"/>
<rect x="2" y="2" width="32" height="32" rx="16" stroke="#F9F5FF" stroke-width="4"/>
<g clip-path="url(#clip0_717_1360)">
<path d="M16 22.6667C12.6667 23.6667 12.6667 21 11.3333 20.6667M20.6667 24.6667V22.0867C20.6917 21.7688 20.6487 21.4492 20.5407 21.1492C20.4326 20.8492 20.262 20.5756 20.04 20.3467C22.1333 20.1133 24.3333 19.32 24.3333 15.68C24.3332 14.7492 23.9751 13.8541 23.3333 13.18C23.6372 12.3657 23.6158 11.4656 23.2733 10.6667C23.2733 10.6667 22.4867 10.4333 20.6667 11.6533C19.1387 11.2392 17.528 11.2392 16 11.6533C14.18 10.4333 13.3933 10.6667 13.3933 10.6667C13.0509 11.4656 13.0294 12.3657 13.3333 13.18C12.6868 13.8591 12.3283 14.7623 12.3333 15.7C12.3333 19.3133 14.5333 20.1067 16.6267 20.3667C16.4073 20.5933 16.2382 20.8636 16.1302 21.1599C16.0222 21.4563 15.9779 21.772 16 22.0867V24.6667" stroke="#7F56D9" stroke-width="1.33" stroke-linecap="round" stroke-linejoin="round"/>
</g>
<defs>
<clipPath id="clip0_717_1360">
<rect width="16" height="16" fill="white" transform="translate(10 10)"/>
</clipPath>
</defs>
</svg>
