<svg width="36" height="36" viewBox="0 0 36 36" fill="none" xmlns="http://www.w3.org/2000/svg">
    <rect x="2" y="2" width="32" height="32" rx="16" fill="#F5A25D"/>
    <rect x="2" y="2" width="32" height="32" rx="16" stroke="#FFF8F0" stroke-width="4"/>

    <g transform="translate(6, 6)">
        <path stroke="#FFF8F0" stroke-linecap="round" stroke-linejoin="round" stroke-width="2"
              d="M12 21a9 9 0 1 0 0-18 9 9 0 0 0 0 18Zm0 0a8.949 8.949 0 0 0 4.951-1.488A3.987 3.987 0 0 0 13 16h-2a3.987 3.987 0 0 0-3.951 3.512A8.948 8.948 0 0 0 12 21Zm3-11a3 3 0 1 1-6 0 3 3 0 0 1 6 0Z"/>
    </g>
</svg>
