<svg width="36" height="36" viewBox="0 0 36 36" fill="none" xmlns="http://www.w3.org/2000/svg">
<rect x="2" y="2" width="32" height="32" rx="16" fill="#F4EBFF"/>
<rect x="2" y="2" width="32" height="32" rx="16" stroke="#F9F5FF" stroke-width="4"/>
<path d="M20.6667 24V13.3333C20.6667 12.9797 20.5262 12.6406 20.2761 12.3905C20.0261 12.1405 19.687 12 19.3333 12H16.6667C16.313 12 15.9739 12.1405 15.7239 12.3905C15.4738 12.6406 15.3333 12.9797 15.3333 13.3333V24M12.6667 14.6667H23.3333C24.0697 14.6667 24.6667 15.2636 24.6667 16V22.6667C24.6667 23.403 24.0697 24 23.3333 24H12.6667C11.9303 24 11.3333 23.403 11.3333 22.6667V16C11.3333 15.2636 11.9303 14.6667 12.6667 14.6667Z" stroke="#7F56D9" stroke-width="1.33" stroke-linecap="round" stroke-linejoin="round"/>
</svg>
