<svg width="20" height="21" viewBox="0 0 20 21" fill="none" xmlns="http://www.w3.org/2000/svg">
<path d="M17.5 7.98791L17.5 2.98792M17.5 2.98792H12.5M17.5 2.98792L10.8333 9.65458M8.33333 4.65458H6.5C5.09987 4.65458 4.3998 4.65458 3.86502 4.92707C3.39462 5.16675 3.01217 5.5492 2.77248 6.01961C2.5 6.55438 2.5 7.25445 2.5 8.65458V13.9879C2.5 15.388 2.5 16.0881 2.77248 16.6229C3.01217 17.0933 3.39462 17.4757 3.86502 17.7154C4.3998 17.9879 5.09987 17.9879 6.5 17.9879H11.8333C13.2335 17.9879 13.9335 17.9879 14.4683 17.7154C14.9387 17.4757 15.3212 17.0933 15.5608 16.6229C15.8333 16.0881 15.8333 15.388 15.8333 13.9879V12.1546" stroke="#344054" stroke-width="2" stroke-linecap="round" stroke-linejoin="round"/>
</svg>
